<svg id="uydu" width="64" height="64" viewBox="0 0 64 64" fill="none" xmlns="http://www.w3.org/2000/svg">
<path d="M61.5463 44.1952L44.6599 27.1851L46.534 17.9541C47.0176 18.1429 47.5318 18.2416 48.0508 18.2453H48.0636C50.4482 18.2735 52.404 16.3633 52.4323 13.9788C52.4606 11.5943 50.5503 9.6384 48.1658 9.61013C45.7812 9.582 43.8254 11.4921 43.7971 13.8767C43.7911 14.3869 43.8755 14.8941 44.0466 15.3749L34.1266 16.5856L17.9452 0.32C17.7467 0.117467 17.4757 0.00226667 17.1921 0C16.9121 0.00146667 16.644 0.112933 16.4455 0.3104L13.4204 3.3184C13.004 3.73493 13.004 4.41013 13.4204 4.82667L15.0481 6.47787C8.74201 18.0737 10.7903 32.4335 20.0871 41.8037C20.1724 41.8853 20.2713 41.9513 20.3793 41.9989C20.3121 42.3599 20.2771 42.7261 20.2748 43.0933V55.4667H7.47481C4.53081 55.4701 2.14495 57.856 2.14148 60.8V62.9333C2.14148 63.5224 2.61908 64 3.20815 64H52.2748C52.8639 64 53.3415 63.5224 53.3415 62.9333V60.8C53.338 57.856 50.9522 55.4701 48.0082 55.4667H35.2082V49.9829C37.2134 50.4035 39.2564 50.6179 41.3052 50.6229C46.2215 50.6176 51.0595 49.392 55.3852 47.056L57.0215 48.7019C57.22 48.9044 57.491 49.0196 57.7746 49.0219C58.0546 49.0204 58.3227 48.9089 58.5212 48.7115L61.5463 45.7035C61.9627 45.2869 61.9627 44.6117 61.5463 44.1952ZM46.5596 12.4661C47.395 11.6352 48.7458 11.6389 49.5766 12.4743C50.4075 13.3096 50.4038 14.6604 49.5684 15.4912C49.1686 15.8889 48.6275 16.1121 48.0635 16.112H48.0571C46.879 16.1059 45.9287 15.1459 45.9348 13.9676C45.9378 13.4036 46.1639 12.8639 46.5638 12.4661H46.5596ZM44.0487 19.4752L42.8519 25.3664L40.5009 23.0016L44.0487 19.4752ZM42.837 17.6715L38.997 21.4891L36.0263 18.5024L42.837 17.6715ZM48.0082 57.6C49.7755 57.6 51.2082 59.0327 51.2082 60.8V61.8667H4.27481V60.8C4.27481 59.0327 5.70748 57.6 7.47481 57.6H48.0082ZM33.0748 53.3333V55.4667H22.4081V53.3333H33.0748ZM22.4081 51.2V43.0933C22.4081 40.5056 24.8007 38.4 27.7415 38.4C30.6823 38.4 33.0748 40.5056 33.0748 43.0933V51.2H22.4081ZM35.2082 47.808V43.0933C35.2082 39.3291 31.8588 36.2667 27.7415 36.2667C25.0793 36.2259 22.59 37.5809 21.1793 39.8389C13.0639 31.2913 11.2364 18.5485 16.6221 8.06467L53.8258 45.4816C48.081 48.404 41.4955 49.2268 35.2082 47.808ZM57.7863 46.4405L56.2834 44.9291L17.1815 5.59147L15.6721 4.07893L17.1815 2.57493L33.0513 18.5344C33.0588 18.5344 33.0631 18.5483 33.0706 18.5536L59.2999 44.9365L57.7863 46.4405Z" fill="#2E2F42"/>
<path d="M27.7511 40.5333H27.7415C25.9742 40.5306 24.5394 41.9612 24.5367 43.7285C24.534 45.4958 25.9646 46.9306 27.7319 46.9333H27.7415C29.5088 46.936 30.9436 45.5054 30.9463 43.7381C30.9489 41.9708 29.5184 40.536 27.7511 40.5333ZM28.4978 44.4896C28.297 44.6893 28.0248 44.801 27.7415 44.8C27.1524 44.7969 26.6774 44.3169 26.6804 43.7278C26.6819 43.4458 26.795 43.176 26.9948 42.977C27.1934 42.7796 27.4615 42.6681 27.7415 42.6666C28.3306 42.6697 28.8056 43.1497 28.8026 43.7388C28.8011 44.0208 28.688 44.2906 28.4882 44.4896H28.4978Z" fill="#4D5AE5"/>
</svg>


<svg id="saat" aria-hidden="true" style="position: absolute; width: 0; height: 0; overflow: hidden;" version="1.1" xmlns="http://www.w3.org/2000/svg" xmlns:xlink="http://www.w3.org/1999/xlink">
<defs>
<symbol id="icon-Vector" viewBox="0 0 31 32">
<path d="M30.797 15.301c-0.002-8.452-6.855-15.303-15.308-15.301s-15.303 6.855-15.301 15.308c0.001 6.658 4.307 12.551 10.649 14.576 0.061 0.019 0.124 0.029 0.187 0.029 0.121-0 0.239-0.032 0.342-0.094 0.135-0.080 0.236-0.207 0.283-0.356l3.865-12.25c1.057-0.005 1.909-0.866 1.903-1.923s-0.866-1.909-1.923-1.903c-0.284 0.001-0.565 0.067-0.82 0.191l-5.106-5.107c-0.253-0.245-0.657-0.238-0.902 0.016-0.239 0.247-0.239 0.639 0 0.886l5.103 5.109c-0.392 0.799-0.168 1.764 0.536 2.309l-3.683 11.673c-7.278-2.681-11.004-10.754-8.323-18.032s10.754-11.004 18.032-8.323c7.278 2.681 11.004 10.754 8.323 18.032-1.31 3.556-4.001 6.431-7.462 7.973l-0.398-1.874c-0.073-0.345-0.411-0.565-0.756-0.492-0.109 0.023-0.209 0.074-0.293 0.148l-3.837 3.426c-0.263 0.234-0.287 0.637-0.052 0.9 0.076 0.085 0.174 0.149 0.283 0.184l4.899 1.564c0.335 0.108 0.694-0.077 0.802-0.412 0.034-0.106 0.040-0.219 0.017-0.328l-0.391-1.839c5.664-2.388 9.342-7.942 9.329-14.089zM15.492 14.664c0.352 0 0.638 0.286 0.638 0.638s-0.286 0.638-0.638 0.638c-0.352 0-0.638-0.285-0.638-0.638s0.285-0.638 0.638-0.638zM17.593 29.528l2.184-1.948 0.603 2.84-2.787-0.892z"></path>
</symbol>
</defs>
</svg>


<svg id="saat" width="62" height="64" viewBox="0 0 62 64" fill="none" xmlns="http://www.w3.org/2000/svg">
<path d="M61.5933 30.6025C61.5899 13.6978 47.8828 -0.00341734 30.9775 6.39362e-07C14.0728 0.00341861 0.371583 13.7109 0.375001 30.6157C0.37793 43.9316 8.98877 55.7178 21.6738 59.7681C21.7949 59.8062 21.9209 59.8257 22.0474 59.8252C22.2886 59.8247 22.5249 59.7603 22.7324 59.6377C23.0024 59.478 23.2041 59.2241 23.2988 58.9248L31.0288 34.4248C33.1421 34.4141 34.8462 32.6919 34.835 30.5791C34.8242 28.4658 33.1025 26.7617 30.9893 26.7725C30.4209 26.7749 29.8599 26.9058 29.3491 27.1553L19.1372 16.9419C18.6304 16.4526 17.8232 16.4668 17.334 16.9731C16.8564 17.4678 16.8564 18.251 17.334 18.7456L27.5405 28.9639C26.7573 30.5625 27.2051 32.4922 28.6133 33.582L21.248 56.9277C6.69238 51.5659 -0.760742 35.4199 4.60108 20.8643C9.96289 6.30859 26.1089 -1.14453 40.6646 4.21729C55.2202 9.5791 62.6733 25.7256 57.3115 40.2808C54.6919 47.3921 49.3096 53.1431 42.3872 56.2275L41.5913 52.479C41.4458 51.79 40.7686 51.3496 40.0796 51.4956C39.8623 51.542 39.6606 51.6441 39.4946 51.792L31.8208 58.6431C31.2944 59.1113 31.2476 59.9175 31.7163 60.4439C31.8687 60.6148 32.064 60.7417 32.2827 60.8115L42.0801 63.9385C42.7505 64.1538 43.4688 63.7852 43.6841 63.1143C43.7524 62.9024 43.7637 62.6768 43.7178 62.459L42.9356 58.7808C54.2642 54.0049 61.6196 42.8965 61.5933 30.6025ZM30.9844 29.3272C31.6885 29.3272 32.2598 29.8984 32.2598 30.6025C32.2598 31.3071 31.6885 31.8779 30.9844 31.8779C30.2798 31.8779 29.709 31.3071 29.709 30.6025C29.709 29.8984 30.2798 29.3272 30.9844 29.3272ZM35.1851 59.0552L39.5532 55.1587L40.7588 60.8394L35.1851 59.0552Z" fill="#2E2F42"/>
</svg>




<svg id="ekran" width="64" height="50" viewBox="0 0 64 50" fill="none" xmlns="http://www.w3.org/2000/svg">
<path d="M3.19833 49.5819H54.3715C56.1378 49.5819 57.5699 48.1499 57.5699 46.3836V42.1192C57.5699 40.3529 56.1378 38.9209 54.3715 38.9209H53.3054V12.3343L59.3611 6.59768C60.7666 7.29055 62.4678 6.86993 63.3876 5.60029C64.308 4.33116 64.1789 2.58364 63.0826 1.46339C61.9863 0.343142 60.2424 0.176042 58.953 1.06776C57.6641 1.96 57.206 3.65131 57.8681 5.07192L53.3054 9.39726V6.93761C53.3054 5.17134 51.8734 3.73928 50.1071 3.73928H7.46276C5.6965 3.73928 4.26443 5.17134 4.26443 6.93761V38.9209H3.19833C1.43206 38.9209 0 40.3529 0 42.1192V46.3836C0 48.1499 1.43206 49.5819 3.19833 49.5819ZM60.7682 2.67317C61.3569 2.67317 61.8343 3.15053 61.8343 3.73928C61.8343 4.32803 61.3569 4.80539 60.7682 4.80539C60.1794 4.80539 59.7021 4.32803 59.7021 3.73928C59.7021 3.15053 60.1794 2.67317 60.7682 2.67317ZM6.39665 6.93761C6.39665 6.34885 6.874 5.8715 7.46276 5.8715H50.1071C50.6958 5.8715 51.1732 6.34885 51.1732 6.93761V11.4149L49.041 13.441V9.06982C49.041 8.48107 48.5636 8.00371 47.9749 8.00371H9.59498C9.00622 8.00371 8.52887 8.48107 8.52887 9.06982V35.7225C8.52887 36.3113 9.00622 36.7886 9.59498 36.7886H47.9749C48.5636 36.7886 49.041 36.3113 49.041 35.7225V16.3738L51.1732 14.3535V38.9209H6.39665V6.93761ZM15.9916 20.797C14.5492 20.7929 13.2826 21.7538 12.899 23.1442C12.5153 24.5346 13.1093 26.0094 14.3498 26.7455C15.5898 27.4815 17.1697 27.2967 18.2061 26.2936L21.912 28.1531C22.3425 28.3686 22.8646 28.2676 23.1847 27.9079L31.0624 19.0453L38.8062 24.848C39.2216 25.1593 39.8016 25.126 40.1784 24.7694L46.9088 18.3941V34.6564H10.6611V10.1359H46.9088V15.4566L39.3658 22.5997L31.5569 16.7455C31.1134 16.4134 30.4892 16.4758 30.1207 16.8897L22.1348 25.8751L19.1493 24.3821C19.1712 24.2541 19.1847 24.125 19.19 23.9953C19.19 22.2291 17.7579 20.797 15.9916 20.797ZM17.0577 23.9953C17.0577 24.5841 16.5804 25.0615 15.9916 25.0615C15.4029 25.0615 14.9255 24.5841 14.9255 23.9953C14.9255 23.4066 15.4029 22.9292 15.9916 22.9292C16.5804 22.9292 17.0577 23.4066 17.0577 23.9953ZM23.4544 41.0531H34.1155V42.1192C34.1155 42.7079 33.6381 43.1853 33.0494 43.1853H24.5205C23.9317 43.1853 23.4544 42.7079 23.4544 42.1192V41.0531ZM2.13222 42.1192C2.13222 41.5304 2.60957 41.0531 3.19833 41.0531H21.3222V42.1192C21.3222 43.8855 22.7542 45.3175 24.5205 45.3175H33.0494C34.8156 45.3175 36.2477 43.8855 36.2477 42.1192V41.0531H54.3715C54.9603 41.0531 55.4376 41.5304 55.4376 42.1192V46.3836C55.4376 46.9724 54.9603 47.4497 54.3715 47.4497H3.19833C2.60957 47.4497 2.13222 46.9724 2.13222 46.3836V42.1192Z" fill="#2E2F42"/>
</svg>


<svg id="astr" width="51" height="57" viewBox="0 0 51 57" fill="none" xmlns="http://www.w3.org/2000/svg">
<path d="M49.4295 24.3189C48.8546 23.5434 48.0109 23.0443 47.053 22.9098C46.0909 22.7733 45.1415 23.026 44.3734 23.6138L41.8699 25.5327L41.8688 25.5338L38.0735 28.368L35.3577 27.2864C40.2004 25.1136 43.5851 20.2698 43.5851 14.6462C43.5851 7.00017 37.3396 0.779327 29.6627 0.779327C21.9858 0.779327 15.7405 7.00017 15.7405 14.6462C15.7405 17.4175 16.5693 19.9945 17.9805 22.163L12.4529 22.115C12.4497 22.115 12.4466 22.115 12.4433 22.115C12.4262 22.115 12.4124 22.1235 12.3964 22.1247C12.2908 22.1289 12.1873 22.1503 12.0861 22.1865C12.0604 22.1962 12.0338 22.2015 12.0093 22.2132C11.9966 22.2185 11.9837 22.2195 11.9709 22.2259L5.50471 25.4185C5.50359 25.4185 5.50259 25.4185 5.50259 25.4195L1.71578 27.2405C1.67415 27.2586 1.63153 27.2831 1.5899 27.3109C0.0805013 28.3156 -0.433632 30.289 0.393131 31.9018C0.833638 32.7594 1.58352 33.391 2.50516 33.68C2.86042 33.7908 3.22305 33.8453 3.58356 33.8453C4.16282 33.8453 4.7367 33.7035 5.26246 33.423L8.038 31.9467L12.5661 29.6085L15.2797 29.5925L4.39632 40.4237C4.39532 40.4248 4.39419 40.4248 4.39307 40.4258L1.71565 43.0925C1.08314 43.7219 0.735387 44.557 0.735387 45.4478C0.735387 46.3374 1.08314 47.1747 1.71565 47.8052C2.36529 48.4516 3.21968 48.7758 4.07406 48.7758C4.92958 48.7758 5.78284 48.4516 6.4346 47.8052L9.06289 45.1875L12.5446 42.588L14.3462 44.3821L10.8229 47.8904C10.8219 47.8916 10.8208 47.8916 10.8197 47.8926L8.14225 50.5592C7.50974 51.1886 7.16199 52.0237 7.16199 52.9145C7.16199 53.8041 7.50974 54.6414 8.14225 55.2719C8.79189 55.9183 9.6474 56.2426 10.5018 56.2426C11.3562 56.2426 12.2117 55.9183 12.8623 55.2719L15.5407 52.6052L19.8256 48.3386C19.8267 48.3374 19.8267 48.3364 19.8277 48.3353L21.847 46.3353L21.8395 46.3278C21.8522 46.315 21.8703 46.3106 21.8832 46.2969L32.2151 34.9805L39.1571 35.9682C39.2072 35.9757 39.2574 35.9789 39.3075 35.9789C39.4366 35.9789 39.5614 35.948 39.6819 35.9021C39.7171 35.8894 39.748 35.8722 39.7811 35.8552C39.8195 35.836 39.86 35.8254 39.8964 35.8009L46.3231 31.5342C46.3466 31.5182 46.3594 31.4925 46.3817 31.4755C46.4074 31.4553 46.4394 31.4468 46.4627 31.4243L49.0056 29.0424C50.3288 27.8026 50.5112 25.7717 49.4295 24.3189ZM4.26082 31.5403C3.91419 31.7259 3.52056 31.7632 3.14405 31.6438C2.77067 31.5275 2.46779 31.2725 2.29066 30.928C1.96853 30.3008 2.15516 29.537 2.71942 29.1243L5.34671 27.8602L5.97922 29.7088L6.24485 30.4853L4.26082 31.5403ZM11.2551 27.8849L8.1585 29.4849L7.64762 27.9915L7.28074 26.9184L11.3342 24.9172L11.2551 27.8849ZM41.4539 14.644C41.4539 16.4808 41.0155 18.2132 40.256 19.763L31.8933 15.9646C31.8057 14.8179 31.2106 13.8142 30.3167 13.189L33.2448 3.46837C38.0001 4.98102 41.4539 9.41733 41.4539 14.644ZM17.876 14.644C17.876 8.17456 23.1646 2.91049 29.665 2.91049C30.1706 2.91049 30.6655 2.95311 31.1551 3.01499L28.2911 12.5224C28.2527 12.5213 28.2164 12.5106 28.1769 12.5106C26.1118 12.5106 24.4318 14.1853 24.4318 16.2441C24.4318 18.3027 26.1118 19.9775 28.1769 19.9775C29.5657 19.9775 30.7657 19.2106 31.4132 18.0883L39.1381 21.5978C36.9887 24.4906 33.5487 26.3776 29.6648 26.3776C23.1646 26.3776 17.876 21.1135 17.876 14.644ZM29.7887 16.2441C29.7887 17.1262 29.0655 17.8441 28.1769 17.8441C27.2884 17.8441 26.5652 17.1262 26.5652 16.2441C26.5652 15.3619 27.2884 14.644 28.1769 14.644C29.0655 14.644 29.7887 15.3619 29.7887 16.2441ZM4.9297 46.2925C4.4572 46.7608 3.69231 46.7598 3.22093 46.2936C2.99367 46.0664 2.86892 45.7668 2.86892 45.4478C2.86892 45.1299 2.99367 44.8301 3.22093 44.6051L5.14508 42.6882L6.84748 44.3832L4.9297 46.2925ZM11.3574 53.7594C10.8849 54.2276 10.119 54.2288 9.64753 53.7605C9.42027 53.5333 9.29552 53.2336 9.29552 52.9146C9.29552 52.5967 9.42027 52.297 9.64753 52.072L11.5729 50.1541L12.3783 50.9552L13.2765 51.8491L11.3574 53.7594ZM18.3208 46.8217C18.3197 46.8227 18.3187 46.8227 18.3175 46.8238L14.7879 50.3438L13.9825 49.5427L13.0843 48.6488L16.6108 45.1384C16.6108 45.1384 16.6108 45.1384 16.6108 45.1374C16.6119 45.1363 16.6129 45.1363 16.614 45.1353C16.694 45.0553 16.7441 44.9593 16.7933 44.8644C16.8071 44.8366 16.8338 44.8131 16.8455 44.7844C16.8786 44.7023 16.8839 44.6138 16.8968 44.5272C16.9031 44.4781 16.9245 44.4324 16.9245 44.3821C16.9245 44.3106 16.8989 44.2414 16.884 44.1709C16.8713 44.1069 16.8713 44.0417 16.8466 43.98C16.8061 43.8797 16.7368 43.7912 16.6643 43.7047C16.644 43.6812 16.6365 43.6514 16.6141 43.629C16.6141 43.629 16.6141 43.629 16.613 43.629C16.6119 43.628 16.6119 43.6257 16.6109 43.6247L13.397 40.4247C13.3628 40.3906 13.3191 40.3767 13.2807 40.3479C13.2242 40.3042 13.1698 40.2637 13.1068 40.2327C13.0461 40.2028 12.9842 40.1847 12.9202 40.1676C12.852 40.1483 12.7858 40.1334 12.7143 40.1281C12.6492 40.1238 12.5884 40.1302 12.5234 40.1377C12.4519 40.1462 12.3848 40.1558 12.3154 40.1782C12.2482 40.1996 12.1886 40.2326 12.1267 40.2678C12.0872 40.2902 12.0424 40.2977 12.0051 40.3254L8.45838 42.973L6.65673 41.1788L11.4547 36.4065L20.1759 44.9838L18.3208 46.8217ZM31.9584 32.7883C31.9275 32.7841 31.8986 32.7958 31.8678 32.7937C31.7899 32.7894 31.7153 32.7948 31.6374 32.8076C31.5766 32.8182 31.519 32.8299 31.4614 32.8502C31.3931 32.8737 31.3312 32.9057 31.2682 32.9441C31.2085 32.9803 31.1541 33.0187 31.1019 33.0667C31.0762 33.0891 31.0454 33.0998 31.0219 33.1253L21.6253 43.4167L12.9692 34.9035L18.6354 29.2671C19.0525 28.8511 19.0547 28.1759 18.6387 27.7577C18.4285 27.5476 18.1523 27.4441 17.876 27.4452V27.4442L13.4386 27.4709L13.4941 24.2559L19.7022 24.3093C22.2324 26.8971 25.7609 28.511 29.665 28.511C30.5396 28.511 31.393 28.4204 32.2239 28.2656C32.3039 28.3296 32.3828 28.3948 32.4831 28.4353L37.3025 30.3553L37.6075 31.8721L37.9637 33.6427L31.9584 32.7883ZM40.0406 33.1446L39.4145 30.0288L42.3073 27.8687L43.0647 28.8735L44.2007 30.3818L40.0406 33.1446ZM47.5479 27.4826L45.8721 29.0528L44.0097 26.5802L45.6726 25.3056C45.983 25.0667 46.3745 24.9696 46.7585 25.0197C47.1446 25.0741 47.486 25.2757 47.7185 25.5882C48.1516 26.1717 48.078 26.9856 47.5479 27.4826Z" fill="#2E2F42"/>
</svg>


<svg id="" width="40" height="40" viewBox="0 0 40 40" fill="none" xmlns="http://www.w3.org/2000/svg">
<path d="M40 19.9999C40 25.5228 37.7614 30.5228 34.1421 34.1421C30.5228 37.7614 25.5228 39.9999 20 39.9999C14.4772 39.9999 9.47715 37.7614 5.85786 34.1421C2.23858 30.5228 0 25.5228 0 19.9999C0 14.4771 2.23858 9.47709 5.85786 5.8578C9.47715 2.23852 14.4772 -6.10352e-05 20 -6.10352e-05C25.5228 -6.10352e-05 30.5228 2.23852 34.1421 5.8578C37.7614 9.47709 40 14.4771 40 19.9999Z" fill="#4D5AE5"/>
</svg>




<svg width="16" height="16" viewBox="0 0 16 16" fill="none" xmlns="http://www.w3.org/2000/svg">
<path d="M15.9843 4.70398C15.9468 3.85384 15.8093 3.26938 15.6124 2.76293C15.4092 2.22535 15.0967 1.74405 14.6872 1.34395C14.2871 0.937622 13.8026 0.621887 13.2713 0.421896C12.7619 0.224959 12.1805 0.0874805 11.3303 0.0499976C10.4738 0.00934021 10.2019 -6.10352e-05 8.02963 -6.10352e-05C5.85733 -6.10352e-05 5.58543 0.00934021 4.73212 0.0468231C3.88197 0.084306 3.29751 0.221906 2.79119 0.418722C2.25348 0.621887 1.77219 0.934448 1.37209 1.34395C0.965758 1.74405 0.650145 2.22852 0.450033 2.75988C0.253096 3.26938 0.115618 3.85067 0.0781347 4.70081C0.0374774 5.5573 0.0280762 5.8292 0.0280762 8.0015C0.0280762 10.1738 0.0374774 10.4457 0.0749603 11.299C0.112443 12.1492 0.250043 12.7336 0.446981 13.2401C0.650145 13.7777 0.965758 14.259 1.37209 14.6591C1.77219 15.0654 2.25666 15.3811 2.78801 15.5811C3.29751 15.778 3.8788 15.9155 4.72906 15.953C5.58226 15.9906 5.85428 15.9999 8.02658 15.9999C10.1989 15.9999 10.4708 15.9906 11.3241 15.953C12.1742 15.9155 12.7587 15.778 13.265 15.5811C14.3403 15.1654 15.1904 14.3152 15.6062 13.2401C15.803 12.7306 15.9406 12.1492 15.9781 11.299C16.0156 10.4457 16.025 10.1738 16.025 8.0015C16.025 5.8292 16.0218 5.5573 15.9843 4.70398ZM14.5435 11.2365C14.509 12.0179 14.3778 12.4399 14.2684 12.7212C13.9995 13.4182 13.4463 13.9714 12.7493 14.2403C12.468 14.3497 12.043 14.4809 11.2646 14.5152C10.4207 14.5528 10.1676 14.5621 8.03281 14.5621C5.89799 14.5621 5.64172 14.5528 4.80085 14.5152C4.01945 14.4809 3.5975 14.3497 3.31619 14.2403C2.96932 14.1121 2.65359 13.9089 2.39731 13.6432C2.13163 13.3838 1.92847 13.0712 1.80027 12.7243C1.69087 12.443 1.55962 12.0179 1.52532 11.2397C1.48771 10.3958 1.47843 10.1425 1.47843 8.00773C1.47843 5.87291 1.48771 5.61664 1.52532 4.7759C1.55962 3.99449 1.69087 3.57254 1.80027 3.29123C1.92847 2.94424 2.13163 2.62863 2.40049 2.37223C2.65981 2.10655 2.97237 1.90339 3.31937 1.77531C3.60067 1.66591 4.0258 1.53466 4.80403 1.50023C5.64794 1.46275 5.90117 1.45335 8.03586 1.45335C10.1738 1.45335 10.4269 1.46275 11.2678 1.50023C12.0492 1.53466 12.4712 1.66591 12.7525 1.77531C13.0993 1.90339 13.4151 2.10655 13.6714 2.37223C13.937 2.63168 14.1402 2.94424 14.2684 3.29123C14.3778 3.57254 14.509 3.99755 14.5435 4.7759C14.581 5.61981 14.5904 5.87291 14.5904 8.00773C14.5904 10.1425 14.581 10.3926 14.5435 11.2365Z" fill="#F4F4FD"/>
</svg>


<svg aria-hidden="true" style="position: absolute; width: 0; height: 0; overflow: hidden;" version="1.1" xmlns="http://www.w3.org/2000/svg" xmlns:xlink="http://www.w3.org/1999/xlink">
<defs>

<symbol id="icon-antenna" viewBox="0 0 32 32">
<path fill="#2e2f42" style="fill: var(--color1, #2e2f42)" d="M30.773 22.098l-8.443-8.505 0.937-4.615c0.242 0.094 0.499 0.144 0.758 0.146h0.006c1.192 0.014 2.17-0.941 2.184-2.133s-0.941-2.17-2.133-2.184c-1.192-0.014-2.17 0.941-2.184 2.133-0.003 0.255 0.039 0.509 0.125 0.749l-4.96 0.605-8.091-8.133c-0.099-0.101-0.235-0.159-0.377-0.16-0.14 0.001-0.274 0.056-0.373 0.155l-1.513 1.504c-0.208 0.208-0.208 0.546 0 0.754l0.814 0.826c-3.153 5.798-2.129 12.978 2.519 17.663 0.043 0.041 0.092 0.074 0.146 0.098-0.034 0.18-0.051 0.364-0.052 0.547v6.187h-6.4c-1.472 0.002-2.665 1.195-2.667 2.667v1.067c0 0.295 0.239 0.533 0.533 0.533h24.533c0.295 0 0.533-0.239 0.533-0.533v-1.067c-0.002-1.472-1.195-2.665-2.667-2.667h-6.4v-2.742c1.003 0.21 2.024 0.317 3.049 0.32 2.458-0.003 4.877-0.615 7.040-1.783l0.818 0.823c0.099 0.101 0.235 0.159 0.377 0.16 0.14-0.001 0.274-0.056 0.373-0.155l1.513-1.504c0.208-0.208 0.208-0.546 0-0.754zM23.28 6.233c0.418-0.415 1.093-0.414 1.509 0.004s0.414 1.093-0.004 1.508c-0.2 0.199-0.47 0.31-0.752 0.31h-0.003c-0.589-0.003-1.064-0.483-1.061-1.072 0.002-0.282 0.115-0.552 0.314-0.751h-0.002zM22.024 9.738l-0.598 2.946-1.175-1.182 1.774-1.763zM21.419 8.836l-1.92 1.909-1.485-1.493 3.405-0.415zM24.004 28.8c0.884 0 1.6 0.716 1.6 1.6v0.533h-23.467v-0.533c0-0.884 0.716-1.6 1.6-1.6h20.267zM16.537 26.667v1.067h-5.333v-1.067h5.333zM11.204 25.6v-4.053c0-1.294 1.196-2.347 2.667-2.347s2.667 1.053 2.667 2.347v4.053h-5.333zM17.604 23.904v-2.357c0-1.882-1.675-3.413-3.733-3.413-1.331-0.020-2.576 0.657-3.281 1.786-4.058-4.274-4.971-10.645-2.279-15.887l18.602 18.708c-2.872 1.461-6.165 1.873-9.309 1.163zM28.893 23.22l-21.057-21.181 0.755-0.752 7.935 7.98c0.004 0 0.006 0.007 0.010 0.010l13.115 13.191-0.757 0.752z"></path>
<path fill="#4d5ae5" style="fill: var(--color2, #4d5ae5)" d="M13.876 20.267h-0.005c-0.884-0.001-1.601 0.714-1.602 1.598s0.714 1.601 1.598 1.602h0.005c0.884 0.001 1.601-0.714 1.602-1.598s-0.714-1.601-1.598-1.602zM14.249 22.245c-0.1 0.1-0.236 0.156-0.378 0.155-0.295-0.002-0.532-0.242-0.531-0.536 0.001-0.141 0.057-0.276 0.157-0.375s0.233-0.154 0.373-0.155c0.295 0.002 0.532 0.242 0.531 0.536-0.001 0.141-0.057 0.276-0.157 0.375h0.005z"></path>
</symbol>

<symbol id="icon-astronaut" viewBox="0 0 32 32">
<path fill="#4d5ae5" style="fill: var(--color2, #4d5ae5)" d="M31.974 4.524c-0.063-0.193-0.229-0.333-0.43-0.363l-1.91-0.278-0.855-1.731c-0.179-0.365-0.777-0.365-0.956 0l-0.855 1.731-1.91 0.278c-0.201 0.029-0.367 0.17-0.431 0.363-0.062 0.193-0.011 0.405 0.135 0.547l1.383 1.348-0.326 1.903c-0.034 0.2 0.048 0.402 0.212 0.522 0.166 0.121 0.382 0.135 0.562 0.040l1.709-0.899 1.709 0.899c0.078 0.041 0.164 0.061 0.249 0.061 0.11 0 0.221-0.034 0.314-0.102 0.164-0.119 0.246-0.322 0.212-0.522l-0.326-1.903 1.383-1.348c0.145-0.142 0.197-0.354 0.135-0.547zM29.511 5.851c-0.125 0.122-0.183 0.299-0.153 0.472l0.191 1.114-1-0.526c-0.078-0.041-0.163-0.061-0.249-0.061s-0.17 0.020-0.249 0.061l-1.001 0.526 0.191-1.114c0.030-0.173-0.028-0.349-0.153-0.472l-0.81-0.789 1.119-0.163c0.174-0.025 0.324-0.134 0.402-0.292l0.5-1.013 0.5 1.013c0.078 0.157 0.228 0.267 0.402 0.292l1.119 0.163-0.809 0.789z"></path>
<path fill="#4d5ae5" style="fill: var(--color2, #4d5ae5)" d="M26.133 20.522h-1.067v1.067h1.067v-1.067z"></path>
<path fill="#4d5ae5" style="fill: var(--color2, #4d5ae5)" d="M26.133 22.656h-1.067v1.067h1.067v-1.067z"></path>
<path fill="#4d5ae5" style="fill: var(--color2, #4d5ae5)" d="M27.2 21.589h-1.067v1.067h1.067v-1.067z"></path>
<path fill="#4d5ae5" style="fill: var(--color2, #4d5ae5)" d="M25.067 21.589h-1.067v1.067h1.067v-1.067z"></path>
<path fill="#4d5ae5" style="fill: var(--color2, #4d5ae5)" d="M22.4 26.389h-1.067v1.067h1.067v-1.067z"></path>
<path fill="#4d5ae5" style="fill: var(--color2, #4d5ae5)" d="M22.4 28.522h-1.067v1.067h1.067v-1.067z"></path>
<path fill="#4d5ae5" style="fill: var(--color2, #4d5ae5)" d="M23.467 27.456h-1.067v1.067h1.067v-1.067z"></path>
<path fill="#4d5ae5" style="fill: var(--color2, #4d5ae5)" d="M21.333 27.456h-1.067v1.067h1.067v-1.067z"></path>
<path fill="#4d5ae5" style="fill: var(--color2, #4d5ae5)" d="M16 24.256h-1.067v1.067h1.067v-1.067z"></path>
<path fill="#4d5ae5" style="fill: var(--color2, #4d5ae5)" d="M16 26.389h-1.067v1.067h1.067v-1.067z"></path>
<path fill="#4d5ae5" style="fill: var(--color2, #4d5ae5)" d="M17.067 25.322h-1.067v1.067h1.067v-1.067z"></path>
<path fill="#4d5ae5" style="fill: var(--color2, #4d5ae5)" d="M14.933 25.322h-1.067v1.067h1.067v-1.067z"></path>
<path fill="#4d5ae5" style="fill: var(--color2, #4d5ae5)" d="M5.867 6.122h-1.067v1.067h1.067v-1.067z"></path>
<path fill="#4d5ae5" style="fill: var(--color2, #4d5ae5)" d="M5.867 8.255h-1.067v1.067h1.067v-1.067z"></path>
<path fill="#4d5ae5" style="fill: var(--color2, #4d5ae5)" d="M6.933 7.189h-1.067v1.067h1.067v-1.067z"></path>
<path fill="#4d5ae5" style="fill: var(--color2, #4d5ae5)" d="M4.8 7.189h-1.067v1.067h1.067v-1.067z"></path>
<path fill="#2e2f42" style="fill: var(--color1, #2e2f42)" d="M24.715 14.159c-0.287-0.388-0.709-0.637-1.188-0.705-0.481-0.068-0.956 0.058-1.34 0.352l-1.252 0.96-1.898 1.417-1.358-0.541c2.421-1.086 4.114-3.508 4.114-6.32 0-3.823-3.123-6.933-6.961-6.933s-6.961 3.11-6.961 6.933c0 1.386 0.414 2.674 1.12 3.758l-2.764-0.024c-0.002 0-0.003 0-0.005 0-0.009 0-0.015 0.004-0.023 0.005-0.053 0.002-0.105 0.013-0.155 0.031-0.013 0.005-0.026 0.008-0.038 0.013-0.006 0.003-0.013 0.003-0.019 0.006l-3.233 1.596c-0.001 0-0.001 0-0.001 0.001l-1.893 0.911c-0.021 0.009-0.042 0.021-0.063 0.035-0.755 0.502-1.012 1.489-0.598 2.295 0.22 0.429 0.595 0.745 1.056 0.889 0.178 0.055 0.359 0.083 0.539 0.083 0.29 0 0.577-0.071 0.839-0.211l1.388-0.738 2.264-1.169 1.357-0.008-5.442 5.416c-0.001 0.001-0.001 0.001-0.002 0.001l-1.339 1.333c-0.316 0.315-0.49 0.732-0.49 1.178s0.174 0.863 0.49 1.179c0.325 0.323 0.752 0.485 1.179 0.485s0.854-0.162 1.18-0.485l1.314-1.309 1.741-1.3 0.901 0.897-1.762 1.754c-0 0.001-0.001 0.001-0.002 0.001l-1.339 1.333c-0.316 0.315-0.49 0.732-0.49 1.178s0.174 0.863 0.49 1.179c0.325 0.323 0.753 0.485 1.18 0.485s0.855-0.162 1.18-0.485l3.482-3.467c0.001-0.001 0.001-0.001 0.001-0.002l1.010-1-0.004-0.004c0.006-0.006 0.015-0.009 0.022-0.015l5.166-5.658 3.471 0.494c0.025 0.004 0.050 0.005 0.075 0.005 0.065 0 0.127-0.015 0.187-0.038 0.018-0.006 0.033-0.015 0.050-0.023 0.019-0.010 0.039-0.015 0.058-0.027l3.213-2.133c0.012-0.008 0.018-0.021 0.029-0.029 0.013-0.010 0.029-0.014 0.041-0.026l1.271-1.191c0.662-0.62 0.753-1.635 0.212-2.362zM2.13 17.77c-0.173 0.093-0.37 0.111-0.558 0.052-0.187-0.058-0.338-0.186-0.427-0.358-0.161-0.314-0.068-0.695 0.214-0.902l1.314-0.632 0.449 1.313-0.992 0.527zM5.628 15.942l-1.548 0.8-0.439-1.283 2.027-1.001-0.040 1.484zM20.727 9.322c0 0.918-0.219 1.785-0.599 2.559l-4.181-1.899c-0.044-0.573-0.341-1.075-0.788-1.388l1.464-4.86c2.378 0.756 4.105 2.974 4.105 5.588zM8.938 9.322c0-3.235 2.644-5.867 5.894-5.867 0.253 0 0.5 0.021 0.745 0.052l-1.432 4.754c-0.019-0.001-0.037-0.006-0.057-0.006-1.033 0-1.873 0.837-1.873 1.867s0.84 1.867 1.873 1.867c0.694 0 1.294-0.383 1.618-0.945l3.862 1.755c-1.075 1.446-2.795 2.39-4.737 2.39-3.25 0-5.894-2.632-5.894-5.867zM14.894 10.122c0 0.441-0.362 0.8-0.806 0.8s-0.806-0.359-0.806-0.8c0-0.441 0.362-0.8 0.806-0.8s0.806 0.359 0.806 0.8zM2.465 25.146c-0.236 0.234-0.619 0.234-0.854 0.001-0.114-0.114-0.176-0.263-0.176-0.423s0.062-0.309 0.176-0.421l0.962-0.958 0.851 0.848-0.959 0.955zM5.679 28.88c-0.236 0.234-0.619 0.235-0.855 0.001-0.114-0.114-0.176-0.263-0.176-0.423s0.062-0.309 0.176-0.421l0.963-0.959 0.852 0.848-0.96 0.955zM9.16 25.411c-0.001 0-0.001 0-0.002 0.001l-1.765 1.76-0.852-0.848 1.763-1.755c0 0 0 0 0-0s0.001-0.001 0.002-0.001c0.040-0.040 0.065-0.088 0.090-0.135 0.007-0.014 0.020-0.026 0.026-0.040 0.017-0.041 0.019-0.085 0.026-0.129 0.003-0.025 0.014-0.047 0.014-0.073 0-0.036-0.013-0.070-0.020-0.106-0.006-0.032-0.006-0.065-0.019-0.095-0.020-0.050-0.055-0.094-0.091-0.138-0.010-0.012-0.014-0.027-0.025-0.038 0 0 0 0-0.001 0s-0.001-0.002-0.001-0.002l-1.607-1.6c-0.017-0.017-0.039-0.024-0.058-0.038-0.028-0.022-0.055-0.042-0.087-0.058-0.030-0.015-0.061-0.024-0.093-0.033-0.034-0.010-0.067-0.017-0.103-0.020-0.033-0.002-0.063 0.001-0.095 0.005-0.036 0.004-0.069 0.009-0.104 0.020-0.034 0.011-0.063 0.027-0.094 0.045-0.020 0.011-0.042 0.015-0.061 0.029l-1.773 1.324-0.901-0.897 2.399-2.386 4.361 4.289-0.928 0.919zM15.979 18.394c-0.015-0.002-0.030 0.004-0.045 0.003-0.039-0.002-0.076 0.001-0.115 0.007-0.030 0.005-0.059 0.011-0.088 0.021-0.034 0.012-0.065 0.028-0.097 0.047-0.030 0.018-0.057 0.037-0.083 0.061-0.013 0.011-0.028 0.017-0.040 0.029l-4.698 5.146-4.328-4.257 2.833-2.818c0.209-0.208 0.21-0.546 0.002-0.755-0.105-0.105-0.243-0.157-0.381-0.156v-0.001l-2.219 0.013 0.028-1.607 3.104 0.027c1.265 1.294 3.029 2.101 4.981 2.101 0.437 0 0.864-0.045 1.279-0.123 0.040 0.032 0.079 0.065 0.13 0.085l2.41 0.96 0.152 0.758 0.178 0.885-3.003-0.427zM20.020 18.572l-0.313-1.558 1.446-1.080 0.947 1.257-2.080 1.381zM23.774 15.741l-0.838 0.785-0.931-1.236 0.831-0.637c0.155-0.119 0.351-0.168 0.543-0.143 0.193 0.027 0.364 0.128 0.48 0.284 0.217 0.292 0.18 0.699-0.085 0.947z"></path>
<path fill="#2e2f42" style="fill: var(--color1, #2e2f42)" d="M13.602 18.544l-2.143-2.133c-0.207-0.207-0.545-0.207-0.753 0l-2.142 2.133c-0.1 0.101-0.157 0.236-0.157 0.378s0.056 0.278 0.157 0.378l2.142 2.133c0.104 0.103 0.241 0.155 0.377 0.155s0.273-0.052 0.376-0.155l2.143-2.133c0.1-0.1 0.157-0.236 0.157-0.378s-0.057-0.278-0.157-0.378zM11.083 20.303l-1.387-1.381 1.387-1.381 1.387 1.381-1.387 1.381z"></path>
<path fill="#2e2f42" style="fill: var(--color1, #2e2f42)" d="M17.164 5.071l-0.258 1.036c0.071 0.018 1.738 0.452 1.738 2.149h1.067c-0-2.017-1.666-2.965-2.547-3.185z"></path>
<path fill="#2e2f42" style="fill: var(--color1, #2e2f42)" d="M19.711 9.322h-1.067v1.067h1.067v-1.067z"></path>
</symbol>

<symbol id="icon-clock" viewBox="0 0 32 32">
<path fill="#2e2f42" style="fill: var(--color1, #2e2f42)" d="M31.297 15.301c-0.002-8.452-6.855-15.303-15.308-15.301s-15.303 6.855-15.301 15.308c0.001 6.658 4.307 12.551 10.649 14.576 0.061 0.019 0.124 0.029 0.187 0.029 0.121-0 0.239-0.032 0.342-0.094 0.135-0.080 0.236-0.207 0.283-0.356l3.865-12.25c1.057-0.005 1.909-0.866 1.903-1.923s-0.866-1.909-1.923-1.903c-0.284 0.001-0.565 0.067-0.82 0.191l-5.106-5.107c-0.253-0.245-0.657-0.238-0.902 0.016-0.239 0.247-0.239 0.639 0 0.886l5.103 5.109c-0.392 0.799-0.168 1.764 0.536 2.309l-3.683 11.673c-7.278-2.681-11.004-10.754-8.323-18.032s10.754-11.004 18.032-8.323c7.278 2.681 11.004 10.754 8.323 18.032-1.31 3.556-4.001 6.431-7.462 7.973l-0.398-1.874c-0.073-0.345-0.411-0.565-0.756-0.492-0.109 0.023-0.209 0.074-0.293 0.148l-3.837 3.426c-0.263 0.234-0.287 0.637-0.052 0.9 0.076 0.085 0.174 0.149 0.283 0.184l4.899 1.564c0.335 0.108 0.694-0.077 0.802-0.412 0.034-0.106 0.040-0.219 0.017-0.328l-0.391-1.839c5.664-2.388 9.342-7.942 9.329-14.089zM15.992 14.664c0.352 0 0.638 0.286 0.638 0.638s-0.286 0.638-0.638 0.638c-0.352 0-0.638-0.285-0.638-0.638s0.285-0.638 0.638-0.638zM18.093 29.528l2.184-1.948 0.603 2.84-2.787-0.892z"></path>
<path fill="#4d5ae5" style="fill: var(--color2, #4d5ae5)" d="M15.354 3.185v1.275c0 0.352 0.285 0.638 0.638 0.638s0.638-0.285 0.638-0.638v-1.275c0-0.352-0.286-0.638-0.638-0.638s-0.638 0.286-0.638 0.638z"></path>
<path fill="#4d5ae5" style="fill: var(--color2, #4d5ae5)" d="M3.876 14.664c-0.352 0-0.638 0.286-0.638 0.638s0.285 0.638 0.638 0.638h1.275c0.352 0 0.638-0.285 0.638-0.638s-0.285-0.638-0.638-0.638h-1.275z"></path>
<path fill="#4d5ae5" style="fill: var(--color2, #4d5ae5)" d="M28.108 15.939c0.352 0 0.638-0.285 0.638-0.638s-0.285-0.638-0.638-0.638h-1.275c-0.352 0-0.638 0.286-0.638 0.638s0.286 0.638 0.638 0.638h1.275z"></path>
</symbol>

<symbol id="icon-diagram" viewBox="0 0 32 32">
<path fill="#4d5ae5" style="fill: var(--color2, #4d5ae5)" d="M14.925 14.965h1.066v4.798h-1.066v-4.797z"></path>
<path fill="#4d5ae5" style="fill: var(--color2, #4d5ae5)" d="M19.19 17.097h1.066v2.665h-1.066v-2.665z"></path>
<path fill="#4d5ae5" style="fill: var(--color2, #4d5ae5)" d="M10.661 18.696h1.066v1.066h-1.066v-1.066z"></path>
<path fill="#4d5ae5" style="fill: var(--color2, #4d5ae5)" d="M7.463 18.163h1.066v1.599h-1.066v-1.599z"></path>
<path fill="#2e2f42" style="fill: var(--color1, #2e2f42)" d="M1.599 28.291h25.587c0.883 0 1.599-0.716 1.599-1.599v-2.132c0-0.883-0.716-1.599-1.599-1.599h-0.533v-13.293l3.028-2.868c0.703 0.346 1.553 0.136 2.013-0.499s0.396-1.508-0.152-2.068-1.42-0.644-2.065-0.198c-0.644 0.446-0.873 1.292-0.542 2.002l-2.281 2.163v-1.23c0-0.883-0.716-1.599-1.599-1.599h-21.322c-0.883 0-1.599 0.716-1.599 1.599v15.992h-0.533c-0.883 0-1.599 0.716-1.599 1.599v2.132c0 0.883 0.716 1.599 1.599 1.599zM30.384 4.837c0.294 0 0.533 0.239 0.533 0.533s-0.239 0.533-0.533 0.533c-0.294 0-0.533-0.239-0.533-0.533s0.239-0.533 0.533-0.533zM3.198 6.969c0-0.294 0.239-0.533 0.533-0.533h21.322c0.294 0 0.533 0.239 0.533 0.533v2.239l-1.066 1.013v-2.186c0-0.294-0.239-0.533-0.533-0.533h-19.19c-0.294 0-0.533 0.239-0.533 0.533v13.326c0 0.294 0.239 0.533 0.533 0.533h19.19c0.294 0 0.533-0.239 0.533-0.533v-9.674l1.066-1.010v12.284h-22.388v-15.992zM7.996 13.899c-0.721-0.002-1.354 0.478-1.546 1.174s0.105 1.433 0.725 1.801c0.62 0.368 1.41 0.276 1.928-0.226l1.853 0.93c0.215 0.108 0.476 0.057 0.636-0.123l3.939-4.431 3.872 2.901c0.208 0.156 0.498 0.139 0.686-0.039l3.365-3.188v8.131h-18.124v-12.26h18.124v2.66l-3.771 3.572-3.904-2.927c-0.222-0.166-0.534-0.135-0.718 0.072l-3.993 4.493-1.493-0.746c0.011-0.064 0.018-0.129 0.020-0.193 0-0.883-0.716-1.599-1.599-1.599zM8.529 15.498c0 0.294-0.239 0.533-0.533 0.533s-0.533-0.239-0.533-0.533c0-0.294 0.239-0.533 0.533-0.533s0.533 0.239 0.533 0.533zM11.727 24.027h5.331v0.533c0 0.294-0.239 0.533-0.533 0.533h-4.264c-0.294 0-0.533-0.239-0.533-0.533v-0.533zM1.066 24.56c0-0.294 0.239-0.533 0.533-0.533h9.062v0.533c0 0.883 0.716 1.599 1.599 1.599h4.264c0.883 0 1.599-0.716 1.599-1.599v-0.533h9.062c0.294 0 0.533 0.239 0.533 0.533v2.132c0 0.294-0.239 0.533-0.533 0.533h-25.587c-0.294 0-0.533-0.239-0.533-0.533v-2.132z"></path>
</symbol>

<symbol id="icon-facebook-svg" viewBox="0 0 32 32">
<path fill="#f4f4fd" style="fill: var(--color3, #f4f4fd)" d="M21.329 5.313h2.921v-5.088c-0.504-0.069-2.237-0.225-4.256-0.225-4.212 0-7.097 2.649-7.097 7.519v4.481h-4.648v5.688h4.648v14.312h5.699v-14.311h4.46l0.708-5.688h-5.169v-3.919c0.001-1.644 0.444-2.769 2.735-2.769z"></path>
</symbol>

<symbol id="icon-instagram" viewBox="0 0 32 32">
<path fill="#f4f4fd" style="fill: var(--color3, #f4f4fd)" d="M31.969 9.408c-0.075-1.7-0.35-2.869-0.744-3.882-0.406-1.075-1.031-2.038-1.85-2.838-0.8-0.813-1.769-1.444-2.832-1.844-1.019-0.394-2.182-0.669-3.882-0.744-1.713-0.081-2.257-0.1-6.601-0.1s-4.888 0.019-6.595 0.094c-1.7 0.075-2.869 0.35-3.882 0.744-1.075 0.406-2.038 1.031-2.838 1.85-0.813 0.8-1.444 1.769-1.844 2.832-0.394 1.019-0.669 2.182-0.744 3.882-0.081 1.713-0.1 2.257-0.1 6.601s0.019 4.888 0.094 6.595c0.075 1.7 0.35 2.869 0.744 3.882 0.406 1.075 1.038 2.038 1.85 2.838 0.8 0.813 1.769 1.444 2.832 1.844 1.019 0.394 2.182 0.669 3.882 0.744 1.706 0.075 2.25 0.094 6.595 0.094s4.888-0.019 6.595-0.094c1.7-0.075 2.869-0.35 3.882-0.744 2.151-0.831 3.851-2.532 4.682-4.682 0.394-1.019 0.669-2.182 0.744-3.882 0.075-1.707 0.094-2.25 0.094-6.595s-0.006-4.888-0.081-6.595zM29.087 22.473c-0.069 1.563-0.331 2.407-0.55 2.969-0.538 1.394-1.644 2.5-3.038 3.038-0.563 0.219-1.413 0.481-2.969 0.55-1.688 0.075-2.194 0.094-6.464 0.094s-4.782-0.019-6.464-0.094c-1.563-0.069-2.407-0.331-2.969-0.55-0.694-0.256-1.325-0.663-1.838-1.194-0.531-0.519-0.938-1.144-1.194-1.838-0.219-0.563-0.481-1.413-0.55-2.969-0.075-1.688-0.094-2.194-0.094-6.464s0.019-4.782 0.094-6.464c0.069-1.563 0.331-2.407 0.55-2.969 0.256-0.694 0.663-1.325 1.2-1.838 0.519-0.531 1.144-0.938 1.838-1.194 0.563-0.219 1.413-0.481 2.969-0.55 1.688-0.075 2.194-0.094 6.464-0.094 4.276 0 4.782 0.019 6.464 0.094 1.563 0.069 2.407 0.331 2.969 0.55 0.694 0.256 1.325 0.662 1.838 1.194 0.531 0.519 0.938 1.144 1.194 1.838 0.219 0.563 0.481 1.413 0.55 2.969 0.075 1.688 0.094 2.194 0.094 6.464s-0.019 4.77-0.094 6.458z"></path>
<path fill="#f4f4fd" style="fill: var(--color3, #f4f4fd)" d="M16.059 7.783c-4.538 0-8.22 3.682-8.22 8.22s3.682 8.22 8.22 8.22c4.538 0 8.22-3.682 8.22-8.22s-3.682-8.22-8.22-8.22zM16.059 21.335c-2.944 0-5.332-2.388-5.332-5.332s2.388-5.332 5.332-5.332c2.944 0 5.332 2.388 5.332 5.332s-2.388 5.332-5.332 5.332z"></path>
<path fill="#f4f4fd" style="fill: var(--color3, #f4f4fd)" d="M26.524 7.458c0 1.060-0.859 1.919-1.919 1.919s-1.919-0.859-1.919-1.919c0-1.060 0.859-1.919 1.919-1.919s1.919 0.859 1.919 1.919z"></path>
</symbol>

<symbol id="icon-linkedin" viewBox="0 0 32 32">
<path fill="#f4f4fd" style="fill: var(--color3, #f4f4fd)" d="M31.992 32v-0.001h0.008v-11.736c0-5.741-1.236-10.164-7.948-10.164-3.227 0-5.392 1.771-6.276 3.449h-0.093v-2.913h-6.364v21.364h6.627v-10.579c0-2.785 0.528-5.479 3.977-5.479 3.399 0 3.449 3.179 3.449 5.657v10.401h6.62z"></path>
<path fill="#f4f4fd" style="fill: var(--color3, #f4f4fd)" d="M0.528 10.636h6.635v21.364h-6.635v-21.364z"></path>
<path fill="#f4f4fd" style="fill: var(--color3, #f4f4fd)" d="M3.843-0c-2.121 0-3.843 1.721-3.843 3.843s1.721 3.879 3.843 3.879c2.121 0 3.843-1.757 3.843-3.879-0.001-2.121-1.723-3.843-3.843-3.843v0z"></path>
</symbol>

<symbol id="icon-twitter" viewBox="0 0 32 32">
<path fill="#f4f4fd" style="fill: var(--color3, #f4f4fd)" d="M32 6.078c-1.19 0.522-2.458 0.868-3.78 1.036 1.36-0.812 2.398-2.088 2.886-3.626-1.268 0.756-2.668 1.29-4.16 1.588-1.204-1.282-2.92-2.076-4.792-2.076-3.632 0-6.556 2.948-6.556 6.562 0 0.52 0.044 1.020 0.152 1.496-5.454-0.266-10.28-2.88-13.522-6.862-0.566 0.982-0.898 2.106-0.898 3.316 0 2.272 1.17 4.286 2.914 5.452-1.054-0.020-2.088-0.326-2.964-0.808 0 0.020 0 0.046 0 0.072 0 3.188 2.274 5.836 5.256 6.446-0.534 0.146-1.116 0.216-1.72 0.216-0.42 0-0.844-0.024-1.242-0.112 0.85 2.598 3.262 4.508 6.13 4.57-2.232 1.746-5.066 2.798-8.134 2.798-0.538 0-1.054-0.024-1.57-0.090 2.906 1.874 6.35 2.944 10.064 2.944 12.072 0 18.672-10 18.672-18.668 0-0.29-0.010-0.57-0.024-0.848 1.302-0.924 2.396-2.078 3.288-3.406z"></path>
</symbol>
</defs>
</svg>